<svg xmlns="http://www.w3.org/2000/svg" viewBox="0 0 217.16 148.38">
      <g id="Livello_2" data-name="Livello 2">
        <g id="Livello_1-2" data-name="Livello 1">
          <path d="M217.16,148H195.9c-.13-2.31-.3-4.25-.34-6.2-.52-21.35-.94-42.7-1.54-64-.33-11.53-4.23-21.29-15.78-25.84a33.5,33.5,0,0,0-26.64.92c-5,2.27-8,6.3-8,12.55.22,25.32.09,50.65.09,76v6.28h-25c0-2,0-3.94,0-5.86.1-25.16.28-50.32.27-75.48,0-12.71-4.14-16.3-16.92-16.1-13.25.21-26.5,0-40.52,0,.45-8.35.86-16.16,1.31-24.52,17.89,0,35.42-.36,52.92.16,7.67.23,12.38,4.78,18,14.05,14.53-16.63,33.57-18.11,53.44-15,11.32,1.8,20.14,8.47,25.34,18.94a25.89,25.89,0,0,1,2.67,10.33c.61,20.35.85,40.71,1.27,61.06,0,2.29.46,4.57.7,6.86Z" />
          <path d="M33.88,0,52.74,2.52c-.47,6-1,12.21-1.42,18.39C49.76,45.84,48,70.77,46.9,95.73c-.26,6.1,1.15,12.51,3,18.42,2.23,7.24,7,9.65,14.62,9C79,122,84.61,114.43,81.82,100.59c-.76-3.79-2.88-4.94-6.17-5-5-.09-9.92,0-15.23,0V73.84c12.1,0,23.85-.24,35.57.12,4.46.14,7.93,2.76,8.14,7.81.73,17.7-.08,35.13-9.3,51a28.38,28.38,0,0,1-16.67,13.32c-27,8.28-51.17-6.93-55.31-34.75a182.35,182.35,0,0,1-.15-55.87,27.64,27.64,0,0,0,0-3.61L0,54.55C0,47.74-.1,41.16.18,34.61c0-1,1.87-2.5,3.09-2.76,6-1.27,12.05-2.32,18.11-3.2,2.79-.41,4-1.67,4.21-4.45C26.26,16.12,27.12,8.07,27.9,0Z" />
        </g>
      </g>
    </svg>